#!OML:ASF F:\VICON\USERDATA\INSTALL\rory3\rory3.ASF
:FULLY-SPECIFIED
:DEGREES
27
root 0.4881341698916112 17.8559611773941 -6.712003637444152 0.39821675997850337 -3.660689379075701 -7.72694354263245
lfemur -22.761654045156543 -4.968869373829236 -8.690106121465027
ltibia 11.758743769317586
lfoot -6.944266127568997 6.867608607626313
ltoes -10.317899094906883
rfemur 5.847195818750313 4.550104731040833 33.324261957722904
rtibia 23.008227235470464
rfoot -17.672168195814002 -7.72048944782368
rtoes -1.5182555401693563
lowerback 10.177817629053358 1.9775824690826158 6.3878528355650195
upperback -0.771997026687574 3.452705007199201 2.3040899452101704
thorax -5.623406303265144 1.5694563899926044 -2.3573435418412076
lowerneck -16.72532051126534 -3.852408089012319 -1.5841274574510396
upperneck 21.458267067857324 -5.338199593542685 1.7274309531586471
head 9.694424177944361 -2.4095546432532897 0.08325992860619713
lclavicle 3.011396232410555e-16 5.67720642881961e-17
lhumerus -35.63167882217903 13.452455077753894 77.3825310157599
lradius 17.525140847385906
lwrist -0.2815709576595271
lhand -29.4426846057833 19.82249750114181
lfingers 7.125020000000001
lthumb -2.5490438836219775 49.85586897222901
rclavicle 2.975755296852867e-16 5.5147914076662925e-17
rhumerus -19.966126118882748 -11.358449675874574 -82.48329222686232
rradius 35.14591367880546
rwrist -2.495311787760214
rhand -19.035299749956494 23.921847810564035
rfingers 7.125020000000001
rthumb 7.430375895812167 -5.654766787436484
28
root 0.5770142309349704 17.838949688284476 -5.6461644053293085 0.40444694912160317 -3.7730451400842977 -7.06241153017936
lfemur -21.958669980251496 -4.463136149058869 -10.375215080283215
ltibia 11.521132816256532
lfoot -4.23509365373258 3.3762917374735064
ltoes -11.529600727171623
rfemur 6.8705718358702175 4.676754400144802 32.07473168366031
rtibia 24.745267088138327
rfoot -16.400659491339102 -6.49323452275692
rtoes -5.291967707744694
lowerback 10.150363265582234 2.064328716194379 6.226509323680356
upperback -0.9359239227230156 3.665025234533398 2.1328774926805343
thorax -5.706001406418802 1.638869174957837 -2.342646447251054
lowerneck -16.861098528608576 -3.8275851291265304 -1.5894499261181732
upperneck 21.35189139175053 -5.291570018503612 1.7738149259834148
head 9.679475760093604 -2.384475686058093 0.1053500972257734
lclavicle 2.9934067914005876e-16 5.5480233616089066e-17
lhumerus -36.26006530248232 13.943210690557445 76.76561716461778
lradius 16.93896835520256
lwrist -1.2303240238068627
lhand -28.846563779125546 19.94034510774113
lfingers 7.125020000000001
lthumb -2.2463708416829102 49.64731516171587
rclavicle 2.9659622623700284e-16 5.4424177961630245e-17
rhumerus -19.715287670373513 -11.972390130975333 -82.55744899855198
rradius 35.50934907692142
rwrist -2.094451870862185
rhand -19.18342220172541 23.82832729455619
rfingers 7.125020000000001
rthumb 7.216602790653997 -5.671601543385138
29
root 0.6653224770590171 17.856960863920637 -5.056930364323213 -0.7576276758391418 -3.013503662271618 -5.999273184675442
lfemur -21.324632426540738 -3.7123157552369346 -12.71984775232433
ltibia 16.27568851968231
lfoot -0.5397707017956392 -1.9590211838816778
ltoes -10.78545387578303
rfemur 6.871086337287492 4.2589801856006515 30.48422282072135
rtibia 28.876939626079412
rfoot -12.516221049692156 -5.18419418731718
rtoes -7.618679212227712
lowerback 10.75554126518013 1.906159081302949 5.402287400686878
upperback -0.7303593162929243 3.2594578575092124 1.9411554551648011
thorax -5.80668808665508 1.46756859554497 -2.112620408963587
lowerneck -16.57854322677099 -3.9202256024272817 -1.7145539964598857
upperneck 21.13757932656527 -5.504519797597366 1.958540513579161
head 9.565772738168192 -2.447139959344927 0.1756650143626992
lclavicle 2.982454686326752e-16 5.4693100732225565e-17
lhumerus -36.76373078198289 14.857259646093194 76.2027329501994
lradius 16.01447641918809
lwrist -2.741929588784166
lhand -28.493283309285438 20.06768646508859
lfingers 7.125020000000001
lthumb -1.85752810536344 50.09439914208746
rclavicle 2.9974224588868046e-16 5.677748572031162e-17
rhumerus -20.40589145017939 -13.344050655076874 -82.10807089822049
rradius 35.10663712956055
rwrist -1.5551241652239018
rhand -19.01450563384577 24.061539554506492
rfingers 7.125020000000001
rthumb 7.262348540531609 -5.856553342812441
30
root 0.7591218495793566 17.934418316528653 -4.973989601439763 -1.5464356086416253 -2.3588070914634676 -4.457089354193839
lfemur -20.12028417811829 -3.5948700150990565 -15.51610840150499
ltibia 20.384422355286375
lfoot 0.39293636272251753 -5.060088050115366
ltoes -7.23201225114509
rfemur 5.073482779010375 3.366277242006772 27.79816596129816
rtibia 35.58090053316769
rfoot -5.48819855004203 -3.2415988554882027
rtoes -5.937321841444386
lowerback 10.551532665334454 1.8324933639272798 3.8836767080775934
upperback -0.5166646979659635 3.0540619751684766 1.5403344390396776
thorax -5.616873082161923 1.4246389118097327 -1.6899622691214307
lowerneck -16.380155490114625 -4.056791835495701 -1.8742228266939747
upperneck 21.29871624862287 -5.747195370652043 2.1221824918143692
head 9.570074935327467 -2.5258162598733764 0.22459778650316545
lclavicle 2.978239785460109e-16 5.4389820001281513e-17
lhumerus -37.00672138350642 15.1753359401818 75.96115243836702
lradius 15.629268472829423
lwrist -2.9454176411824706
lhand -27.663478798428923 21.163904884290393
lfingers 7.125020000000001
lthumb -1.2181054722718814 50.79590305286235
rclavicle 2.9631976811513203e-16 5.435821736511167e-17
rhumerus -21.92620890758876 -15.012866572738648 -81.5097469849289
rradius 34.717493643385225
rwrist -0.2874820342820201
rhand -18.846866048250327 23.90273176310459
rfingers 7.125020000000001
rthumb 7.397401741317363 -6.092438081643088
31
root 0.8574403213577326 18.01287652574698 -3.5710828061106294 -1.9368170859429688 -1.5806105940702002 -4.120632978705476
lfemur -18.09125784615153 -2.9349413295629407 -16.719024595518782
ltibia 23.42346083759087
lfoot -1.3635572370328717 -5.217426726969109
ltoes -5.702225271365892
rfemur 1.116006137494093 1.670045882523153 26.180018268880936
rtibia 43.672367508273936
rfoot 4.095236365783129 -2.2903414497613177
rtoes -0.5106371267113716
lowerback 10.153283464840982 1.494194339692339 4.09896493374322
upperback -0.6495700964862292 2.7068148772196796 1.5821178725689868
thorax -5.585792486226792 1.235489384338614 -1.920863993363774
lowerneck -16.231044421278806 -4.043814023762035 -1.9739519140079087
upperneck 21.455828723169702 -5.782234730083253 2.1393659633009223
head 9.550115196282624 -2.549779201195821 0.22927859811542584
lclavicle 2.9974534419105375e-16 5.576963823991255e-17
lhumerus -37.224074088321814 15.493520796193657 75.72889014422425
lradius 15.581597984912259
lwrist -3.402159660198479
lhand -26.995703766303347 23.028642553316203
lfingers 7.125020000000001
lthumb -0.6093178725552266 52.393315047149734
rclavicle 2.9471580599316267e-16 5.311708095449314e-17
rhumerus -23.98783658514302 -17.025922632293774 -80.77514498913997
rradius 33.831234117455516
rwrist 0.20834832880662013
rhand -18.80945837379946 23.714513014361504
rfingers 7.125020000000001
rthumb 7.468659849305533 -6.2260580518688755
32
root 0.9537281485211125 18.107983515383214 -2.6251181408361095 -2.446883019118938 -2.1352757806398923 -2.988372530541982
lfemur -15.467196792819578 -2.009909155551171 -18.62224858499155
ltibia 25.863821173267187
lfoot -4.648087412322925 -3.743360970591292
ltoes -2.896955098062824
rfemur -4.096043875921302 0.8159805097893211 23.906112570798154
rtibia 52.834153247504275
rfoot 10.74660004119146 -3.6750854613243975
rtoes 8.513896251007594
lowerback 10.299039789233655 1.4806787377584707 3.314966300393017
upperback -0.8219857795266245 2.5688548983201 1.442228341193747
thorax -5.80025221235707 1.188329323011717 -1.6905254808203407
lowerneck -16.276239082602366 -3.958655344989136 -1.9302698611792608
upperneck 21.683668756247997 -5.646693399740233 1.9962309161436878
head 9.625312911801647 -2.505422615469978 0.2001156416362382
lclavicle 2.996318506242772e-16 5.568848795911834e-17
lhumerus -37.08612985125789 14.011776676733774 76.85575901538999
lradius 17.097270364241623
lwrist -0.6746553062338263
lhand -27.399675156627726 23.149768937771345
lfingers 7.125020000000001
lthumb -0.7450345707330492 52.94955094286576
rclavicle 2.967436725563631e-16 5.4457163416444323e-17
rhumerus -25.64479532164626 -17.86912646432183 -80.26256327568228
rradius 33.0369565530297
rwrist 0.19224296367852522
rhand -18.307699076815226 23.576772691408518
rfingers 7.125020000000001
rthumb 7.817440476504803 -6.431901406291007
